# xmcd CD database file
#
# Track frame offsets:
#	150
#	17171
#	32011
#	46068
#	59382
#	91590
#	122214
#	147491
#	168783
#	207530
#	239724
#
# Disc length: 3716 seconds
#
# Revision: 0
# Processed by: cddbd v1.5.1PL0 Copyright (c) Steve Scherf et al.
# Submitted via: CDex 1.51
#
DISCID=960e820b
DTITLE=Tal Farlow - The Complete Verve Tal Farlow Sessions Disk 3
DYEAR=2004
DGENRE=Jazz
TTITLE0=Lullaby of the Leaves
TTITLE1=Stompin' at the Savoy
TTITLE2=This is Always
TTITLE3=Tea For Two
TTITLE4=I Wished on the Moon
TTITLE5=Swingin' Till the Girls Come Home
TTITLE6=Jordu
TTITLE7=The Way You Look Tonight
TTITLE8=Bernie's Tune
TTITLE9=I Wished on the Moon (alt)
TTITLE10=Bernie's Tune (alt)
EXTD=YEAR: 2004
EXTT0=
EXTT1=
EXTT2=
EXTT3=
EXTT4=
EXTT5=
EXTT6=
EXTT7=
EXTT8=
EXTT9=
EXTT10=
PLAYORDER=
